<svg width="24" height="24" viewBox="0 0 24 24" fill="none" xmlns="http://www.w3.org/2000/svg">
<path d="M20.3959 12C20.3959 12.4485 20.0319 12.8125 19.5834 12.8125H12.8126V19.5833C12.8126 20.0318 12.4486 20.3958 12.0001 20.3958C11.5516 20.3958 11.1876 20.0318 11.1876 19.5833V12.8125H4.41675C3.96825 12.8125 3.60425 12.4485 3.60425 12C3.60425 11.5515 3.96825 11.1875 4.41675 11.1875H11.1876V4.41663C11.1876 3.96813 11.5516 3.60413 12.0001 3.60413C12.4486 3.60413 12.8126 3.96813 12.8126 4.41663V11.1875H19.5834C20.0319 11.1875 20.3959 11.5515 20.3959 12Z" fill="#0D0B0E" stroke="#0D0B0E" stroke-width="0.325"/>
</svg>
