<svg width="15" height="15" viewBox="0 0 15 15" fill="none" xmlns="http://www.w3.org/2000/svg">
<g id="Layer_1" clip-path="url(#clip0_580_325)">
<path id="Vector" d="M7.3694 15C5.69435 15 4.01931 14.9992 2.34345 14.9976C0.945814 14.9959 0.00405581 14.0502 0.00162232 12.6445C0 11.44 0 10.2363 0 9.03261V7.45823V5.90818C0 4.73693 0 3.56567 0.00162232 2.39442C0.00324465 0.919808 0.916613 0.00243335 2.38563 0.00162224C4.14747 0.000811118 5.90931 0 7.67116 0C9.32674 0 10.9815 0 12.6363 0.00162224C14.0704 0.00324447 14.9976 0.934408 14.9984 2.37495C15.0008 5.80193 15.0008 9.24999 14.9984 12.625C14.9976 14.0648 14.0696 14.9959 12.6347 14.9976C10.8793 14.9992 9.12476 15 7.3694 15ZM3.72161 13.9228C4.0404 13.9228 4.29753 13.9261 4.53034 13.9318C4.54413 13.9318 4.55711 13.9318 4.57008 13.9318C4.70149 13.9318 4.89374 13.9147 5.03731 13.7695C5.18251 13.6219 5.19873 13.4224 5.1963 13.2642C5.18576 12.4993 5.18738 11.7198 5.189 10.9655C5.189 10.6816 5.19062 10.3969 5.19062 10.113C5.19062 9.82912 5.19062 9.54605 5.18981 9.26215C5.189 8.48105 5.18738 7.67317 5.19549 6.87909C5.19711 6.73552 5.18089 6.55302 5.04218 6.4127C4.90347 6.27237 4.71934 6.25615 4.59199 6.25615H4.57414C4.05743 6.26264 3.57966 6.26588 3.11324 6.26588C2.64682 6.26588 2.1585 6.26264 1.71074 6.25534H1.68884C1.55986 6.25534 1.37167 6.27156 1.22891 6.41513C1.08696 6.55789 1.0683 6.74363 1.06911 6.90748C1.07398 7.96355 1.07398 9.03828 1.07398 10.0773C1.07398 10.9217 1.07398 11.7669 1.07641 12.6113C1.07885 13.4735 1.52174 13.9147 2.39212 13.9228C2.51379 13.9236 2.63628 13.9245 2.75795 13.9245C2.91937 13.9245 3.07998 13.9245 3.2414 13.9228C3.4012 13.9228 3.56181 13.9212 3.72161 13.9212V13.9228ZM6.88838 6.25696C6.75454 6.25696 6.55905 6.274 6.41548 6.41919C6.27352 6.56275 6.25649 6.7485 6.25811 6.91153C6.26622 7.6821 6.26541 8.46726 6.26379 9.22646C6.26379 9.50711 6.26298 9.78776 6.26298 10.0684C6.26298 10.3491 6.26298 10.6459 6.2646 10.9339C6.26622 11.6979 6.26785 12.4888 6.2573 13.2642C6.25487 13.4191 6.27109 13.6162 6.41791 13.7647C6.56392 13.9131 6.76022 13.9318 6.91434 13.9318H6.92489C7.85691 13.9261 8.78407 13.9253 9.64715 13.9253H11.0399C11.5582 13.9253 12.0766 13.9253 12.5957 13.9236C13.462 13.922 13.922 13.471 13.9244 12.621C13.9276 11.7417 13.9268 10.8633 13.9268 9.98405C13.9268 8.97583 13.9268 7.93354 13.9309 6.9091C13.9309 6.74607 13.913 6.55951 13.7719 6.41756C13.6283 6.27318 13.4345 6.25615 13.3006 6.25615C12.2323 6.26102 11.1559 6.26426 10.0941 6.26426C9.03228 6.26426 7.95668 6.26183 6.89487 6.25615H6.88757L6.88838 6.25696ZM11.8097 5.18791C12.401 5.18791 12.8577 5.19034 13.2901 5.19602H13.3104C13.4442 5.19602 13.6372 5.17899 13.7792 5.03461C13.9203 4.89023 13.9349 4.69799 13.9317 4.54794C13.9228 4.1586 13.9244 3.76034 13.926 3.37506C13.9276 3.03115 13.9285 2.67588 13.9228 2.32466C13.909 1.53626 13.4531 1.08203 12.6703 1.07798C11.791 1.07392 10.9044 1.07392 10.142 1.07392H9.24968C8.46123 1.07392 7.67278 1.07392 6.88352 1.07068C6.74562 1.07068 6.55337 1.0869 6.41223 1.23047C6.27028 1.37403 6.25649 1.56383 6.25811 1.69442C6.27109 2.80566 6.27109 3.71492 6.25649 4.55767C6.25406 4.69313 6.26785 4.89104 6.41061 5.03623C6.55013 5.17818 6.7367 5.19683 6.88433 5.19683H6.90542C7.3402 5.19196 7.80094 5.18953 8.39715 5.18953C8.68024 5.18953 8.96334 5.18953 9.24724 5.19034C9.53115 5.19034 9.81424 5.19115 10.0982 5.19115C10.3821 5.19115 10.6692 5.19115 10.9547 5.19034C11.2395 5.19034 11.525 5.18953 11.8097 5.18953V5.18791ZM3.00292 1.07311C2.77823 1.07311 2.55354 1.07392 2.32885 1.07716C1.53472 1.08933 1.0902 1.53139 1.07722 2.32223C1.07073 2.70832 1.07236 3.09928 1.07317 3.47726C1.07398 3.84226 1.0756 4.21943 1.06992 4.58849C1.0683 4.71665 1.08128 4.90402 1.21836 5.04272C1.36762 5.1944 1.57203 5.1944 1.63936 5.1944C1.63936 5.1944 1.66207 5.1944 1.67424 5.1944C1.85594 5.18872 2.05386 5.18629 2.2964 5.18629C2.43997 5.18629 2.58355 5.18629 2.72713 5.18791C2.87232 5.18791 3.01671 5.18953 3.16191 5.18953C3.30711 5.18953 3.44014 5.18953 3.57966 5.18791C3.71755 5.18791 3.85545 5.18629 3.99416 5.18629C4.23507 5.18629 4.43138 5.18872 4.61145 5.19278H4.64309C4.75665 5.19278 4.92294 5.17818 5.05191 5.04759C5.18332 4.91456 5.19711 4.74017 5.1963 4.62094C5.18657 3.66787 5.18657 2.67588 5.1963 1.67252C5.19792 1.53382 5.1817 1.35619 5.04705 1.21992C4.89617 1.06824 4.68689 1.06824 4.61794 1.06824H4.59766C4.39001 1.0723 4.16207 1.07392 3.8806 1.07392C3.7354 1.07392 3.58939 1.07392 3.44419 1.07311C3.29818 1.07311 3.15217 1.07311 3.00617 1.07311H3.00292Z" fill="#06A80D"/>
</g>
<defs>
<clipPath id="clip0_580_325">
<rect width="15" height="15" fill="white"/>
</clipPath>
</defs>
</svg>
