<svg width="24" height="24" viewBox="0 0 24 24" fill="none" xmlns="http://www.w3.org/2000/svg">
<g clip-path="url(#clip0_705_363)">
<path d="M21.9998 13.7236C21.9998 15.8371 22.0008 17.9509 21.9991 20.0643C21.9984 20.9334 21.5355 21.613 20.7598 21.8918C20.5387 21.9714 20.3075 21.9986 20.0745 21.9986C16.1975 22 12.3208 22.0006 8.44379 21.9986C7.49052 21.9979 6.74096 21.3982 6.57228 20.4914C6.50154 20.1116 6.55255 19.7226 6.54779 19.3381C6.54677 19.2548 6.60492 19.2357 6.67396 19.2357C6.89502 19.2351 7.11608 19.2374 7.33714 19.234C7.44903 19.2323 7.48576 19.2871 7.4844 19.3911C7.48134 19.6179 7.48338 19.8443 7.4844 20.0711C7.4861 20.691 7.83333 21.0418 8.45297 21.0422C11.9501 21.0432 15.4473 21.0429 18.9444 21.0429C19.3185 21.0429 19.6926 21.0435 20.0667 21.0429C20.7047 21.0412 21.0417 20.7049 21.0421 20.0657C21.0428 16.0594 21.0421 12.0532 21.0421 8.04692C21.0421 7.92214 21.0356 7.79702 21.0438 7.67291C21.0526 7.53419 21.0006 7.48455 20.8588 7.48591C20.2636 7.49203 19.6685 7.48829 19.0733 7.48829C18.688 7.48829 18.3023 7.49101 17.917 7.48727C17.1195 7.47979 16.5175 6.88173 16.5138 6.08578C16.509 5.11677 16.5087 4.14776 16.5158 3.17875C16.5172 3.00807 16.4689 2.95605 16.2958 2.95639C13.6771 2.96149 11.0587 2.95911 8.44005 2.96013C7.83503 2.96013 7.48508 3.31645 7.48474 3.9271C7.48406 5.62712 7.48474 7.32713 7.4844 9.02681C7.4844 9.20406 7.39337 9.2928 7.21131 9.29303C7.05248 9.29303 6.89332 9.28453 6.73552 9.29541C6.58384 9.30595 6.54167 9.24611 6.54269 9.09957C6.54813 8.20434 6.54541 7.30911 6.54507 6.41354C6.54507 5.56931 6.54473 4.72509 6.54507 3.88052C6.54575 2.81325 7.32251 2.00914 8.39414 2.00574C11.1546 1.99656 13.9148 1.99996 16.6753 2.00506C17.1895 2.00608 17.6344 2.19716 18.002 2.56573C19.1386 3.70542 20.2755 4.84443 21.4175 5.97902C21.8148 6.37342 21.9998 6.84739 22.0001 7.39989C22.0005 9.50791 22.0001 11.6159 22.0001 13.7236H21.9998ZM17.4572 3.4035C17.4558 3.42764 17.4524 3.46572 17.4524 3.5038C17.4524 4.33544 17.4511 5.16709 17.4528 5.99908C17.4538 6.38192 17.6208 6.54784 18.0041 6.54852C18.8305 6.55022 19.6566 6.5492 20.483 6.54852C20.5262 6.54852 20.5728 6.5628 20.5983 6.5441C19.5535 5.49961 18.5074 4.45376 17.4572 3.40418V3.4035Z" fill="black"/>
<path d="M9.7181 18.3637C7.47963 18.3637 5.2415 18.364 3.00303 18.3637C2.53983 18.3637 2.19191 18.1288 2.05792 17.7282C2.01269 17.5929 2.00044 17.4515 2.00044 17.3094C2.00044 15.2812 1.99908 13.2531 2.00112 11.225C2.0018 10.5511 2.38339 10.1669 3.05472 10.1669C7.50854 10.1656 11.9627 10.1656 16.4165 10.1669C17.0783 10.1669 17.4483 10.543 17.4483 11.2009C17.4483 13.246 17.4361 15.2911 17.4555 17.3362C17.4613 17.9564 17.0157 18.3729 16.4158 18.3695C14.1831 18.3562 11.9504 18.364 9.71776 18.364L9.7181 18.3637ZM9.73341 17.4324C11.9093 17.4324 14.0855 17.4324 16.2614 17.4324C16.4315 17.4324 16.5166 17.35 16.5168 17.1853C16.5168 15.2476 16.5168 13.3102 16.5168 11.3726C16.5168 11.2023 16.4331 11.1171 16.2655 11.1169C11.9192 11.1169 7.57281 11.1169 3.22647 11.1169C3.04327 11.1169 2.95156 11.2064 2.95134 11.3855C2.95134 13.3174 2.95134 15.2493 2.95134 17.1812C2.95134 17.4321 2.95168 17.4328 3.20504 17.4328C5.38094 17.4328 7.55717 17.4328 9.73307 17.4328L9.73341 17.4324Z" fill="#06A80D"/>
<path d="M6.10476 13.2221C6.27855 12.8747 6.42887 12.5649 6.58735 12.2596C6.69312 12.0563 6.88425 11.9641 7.09408 11.9988C7.28487 12.0304 7.43655 12.1872 7.4709 12.3874C7.49199 12.5115 7.45152 12.6217 7.3971 12.7295C7.1621 13.1943 6.9305 13.6607 6.69176 14.1235C6.63938 14.2251 6.64108 14.3081 6.69278 14.4091C6.94002 14.8933 7.18353 15.3791 7.42193 15.8677C7.5379 16.1054 7.45628 16.3631 7.23998 16.4858C7.01654 16.6126 6.75365 16.5399 6.60606 16.3087C6.57885 16.2658 6.55674 16.2196 6.53396 16.174C6.42241 15.9513 6.31256 15.7276 6.19897 15.5059C6.17414 15.4577 6.16598 15.3791 6.10476 15.3754C6.03879 15.3716 6.03198 15.4519 6.00784 15.4991C5.87622 15.7562 5.75243 16.017 5.61775 16.2723C5.48274 16.5287 5.23209 16.6126 4.98893 16.4933C4.75291 16.3774 4.66686 16.1142 4.7927 15.8565C5.01376 15.4036 5.23549 14.9511 5.4705 14.5056C5.55552 14.3445 5.56436 14.2143 5.47594 14.0487C5.24366 13.6145 5.0311 13.1698 4.81106 12.7291C4.75495 12.6163 4.71142 12.5007 4.73896 12.3704C4.77875 12.1814 4.93519 12.0257 5.11374 11.9981C5.32596 11.9655 5.50144 12.0461 5.60959 12.2467C5.74359 12.4959 5.865 12.7519 5.99219 13.0049C6.02212 13.0647 6.05375 13.1239 6.10476 13.2225V13.2221Z" fill="#06A80D"/>
<path d="M13.7923 12.9237C13.662 12.9237 13.5318 12.9223 13.4015 12.9237C13.1165 12.9277 12.9312 13.0913 12.923 13.3436C12.9145 13.6074 13.0931 13.7832 13.3845 13.7981C14.0691 13.8335 14.6255 14.3197 14.7177 14.9633C14.837 15.7967 14.2466 16.4957 13.3644 16.5508C13.0767 16.5688 12.7866 16.5617 12.4982 16.5515C12.2126 16.5413 12.0177 16.374 11.9932 16.1411C11.9653 15.8762 12.1218 15.6644 12.3955 15.6236C12.6992 15.5787 13.0063 15.6131 13.3117 15.6056C13.4267 15.6029 13.5386 15.5978 13.6307 15.5155C13.7698 15.3914 13.8263 15.2398 13.7794 15.0575C13.7317 14.8736 13.5804 14.7532 13.3668 14.7335C13.2485 14.7226 13.1298 14.7202 13.0135 14.69C12.3466 14.5162 11.9153 13.876 11.9969 13.1787C12.0735 12.5228 12.6656 11.9985 13.34 11.9927C13.6403 11.99 13.9406 11.9893 14.2405 11.9931C14.5296 11.9965 14.7234 12.1821 14.7268 12.4497C14.7299 12.7156 14.5381 12.909 14.2517 12.9209C14.099 12.9271 13.946 12.922 13.793 12.922V12.9233L13.7923 12.9237Z" fill="#06A80D"/>
<path d="M9.28641 13.943C9.28641 14.4356 9.29015 14.9283 9.28403 15.4209C9.28233 15.562 9.33164 15.61 9.47142 15.6076C9.83396 15.6011 10.1965 15.6035 10.559 15.6069C10.7478 15.6086 10.9199 15.6576 11.0273 15.831C11.1923 16.0965 11.0749 16.4212 10.7791 16.5212C10.6923 16.5504 10.6022 16.5566 10.5107 16.5566C9.99516 16.5559 9.47992 16.5579 8.96435 16.5559C8.52427 16.5542 8.35491 16.3838 8.35491 15.9497C8.35491 14.8113 8.35423 13.673 8.35559 12.5347C8.35593 12.2178 8.51747 12.0162 8.77968 11.9951C9.06331 11.9723 9.28165 12.1692 9.28471 12.465C9.28981 12.9576 9.28607 13.4503 9.28607 13.943H9.28675H9.28641Z" fill="#06A80D"/>
</g>
<defs>
<clipPath id="clip0_705_363">
<rect width="20" height="20" fill="white" transform="translate(2 2)"/>
</clipPath>
</defs>
</svg>
