<svg width="24" height="24" viewBox="0 0 24 24" fill="none" xmlns="http://www.w3.org/2000/svg">
<path d="M12.5195 4.00216C14.4174 4.00216 16.3149 4.00643 18.2128 4.00002C18.9237 3.99745 19.4684 4.27159 19.7968 4.88401C20.1349 5.51482 20.0364 6.11868 19.6096 6.68833C18.0563 8.76081 16.5088 10.8371 14.9538 12.9083C14.8439 13.055 14.7995 13.1991 14.8004 13.3788C14.8065 14.6831 14.8069 15.9875 14.8026 17.2919C14.7999 18.1319 14.2807 18.7819 13.4762 18.9577C13.1332 19.0325 12.7916 19.0077 12.4593 18.8922C12.0873 18.7631 11.7145 18.6365 11.3439 18.5039C10.6317 18.249 10.2026 17.6593 10.1995 16.9156C10.1947 15.7395 10.1947 14.5634 10.2017 13.3873C10.2031 13.2 10.156 13.0507 10.0413 12.8976C8.48144 10.8205 6.92732 8.73985 5.3732 6.65925C4.9406 6.08062 4.87114 5.46264 5.23296 4.83482C5.55653 4.27372 6.07223 4.0013 6.73828 4.00173C8.66521 4.00301 10.5921 4.00216 12.5195 4.00216ZM12.5002 5.08971C10.6471 5.08971 8.79402 5.08971 6.94095 5.08971C6.84555 5.08971 6.74971 5.08415 6.65563 5.09399C6.28633 5.13291 6.04717 5.47205 6.16543 5.80264C6.205 5.91383 6.28413 6.01433 6.35667 6.11184C7.94684 8.24504 9.53745 10.3778 11.132 12.5076C11.2679 12.6894 11.3307 12.8771 11.3299 13.1016C11.3241 14.3556 11.3263 15.6095 11.3277 16.8634C11.3277 17.2149 11.4433 17.3702 11.7774 17.4865C12.1146 17.6041 12.4514 17.723 12.7895 17.8385C13.3232 18.0202 13.6678 17.7799 13.6683 17.2269C13.6687 15.8802 13.674 14.5339 13.6639 13.1872C13.6617 12.9015 13.7378 12.6693 13.9118 12.4379C15.5077 10.3175 17.0931 8.18987 18.6841 6.06608C18.8411 5.85652 18.9272 5.63884 18.798 5.39165C18.6683 5.1436 18.437 5.08758 18.1693 5.088C16.2797 5.09142 14.3902 5.08971 12.5002 5.08971Z" fill="#575859"/>
</svg>
