<svg width="17" height="15" viewBox="0 0 17 15" fill="none" xmlns="http://www.w3.org/2000/svg">
<path d="M8.46514 14.1657C6.40824 14.1657 4.35067 14.167 2.29377 14.1657C0.853668 14.1637 0.00116191 13.3253 0.000497959 11.914C-0.000165986 8.68927 -0.000165986 5.46452 0.000497959 2.24043C0.00182585 0.85139 0.85898 0.00841723 2.2765 0.00514735C3.38264 0.00253146 4.48877 0.0169189 5.59424 -8.44401e-05C6.33852 -0.011856 6.94803 0.233384 7.44798 0.779453C7.88485 1.25685 8.35294 1.70613 8.78981 2.18288C9.0461 2.46213 9.33624 2.58377 9.72199 2.58115C11.3812 2.56807 13.0397 2.57461 14.6989 2.57592C16.1311 2.57657 16.9995 3.42609 16.9995 4.82625C17.0002 7.19036 17.0002 9.55448 16.9995 11.9179C16.9995 13.3155 16.1483 14.1617 14.7361 14.1637C12.646 14.1663 10.5552 14.1643 8.46514 14.1643V14.1657Z" fill="#009DE1"/>
</svg>
