<svg width="20" height="20" viewBox="0 0 20 20" fill="none" xmlns="http://www.w3.org/2000/svg">
<path d="M9.95899 19.9992C7.5391 19.9992 5.11844 20.001 2.69855 19.9992C1.00432 19.9964 0.00136695 18.8128 0.000585835 16.8204C-0.000195278 12.2678 -0.000195278 7.71528 0.000585835 3.16364C0.00214806 1.20265 1.01056 0.0125724 2.67824 0.00795616C3.97957 0.00426314 5.28091 0.0245747 6.58146 0.000570126C7.45709 -0.0160484 8.17415 0.330172 8.76233 1.10109C9.2763 1.77506 9.82698 2.40934 10.341 3.08239C10.6425 3.47662 10.9838 3.64835 11.4376 3.64465C13.3896 3.62619 15.3409 3.63542 17.2929 3.63727C18.9777 3.63819 19.9994 4.8375 19.9994 6.81419C20.0002 10.1517 20.0002 13.4893 19.9994 16.826C19.9994 18.7989 18.998 19.9936 17.3366 19.9964C14.8777 20.0001 12.4179 19.9973 9.95899 19.9973V19.9992Z" fill="#009DE1"/>
</svg>
