<svg width="18" height="16" viewBox="0 0 18 16" fill="none" xmlns="http://www.w3.org/2000/svg">
<g clip-path="url(#clip0_580_274)">
<path d="M9.01355 0.00488678C10.0441 0.00488678 11.0747 -0.0083837 12.1045 0.008379C13.138 0.0258402 13.9568 0.45748 14.483 1.31447C15.5463 3.04662 16.5958 4.78715 17.6264 6.53745C18.1213 7.37768 18.1242 8.26401 17.6307 9.10354C16.5951 10.8643 15.5398 12.6153 14.467 14.3559C13.9473 15.1996 13.1315 15.6312 12.1125 15.6389C10.0398 15.655 7.96625 15.655 5.89347 15.6389C4.86071 15.6312 4.04121 15.1912 3.51501 14.3342C2.45169 12.6021 1.4022 10.8615 0.371631 9.11123C-0.123275 8.27099 -0.126914 7.38537 0.367264 6.54514C1.40293 4.78435 2.45824 3.03335 3.53102 1.29282C4.05213 0.450495 4.86726 0.0265386 5.88619 0.00907745C6.9284 -0.00908214 7.97134 0.00488678 9.01355 0.00488678ZM9.00045 14.5249C10.007 14.5249 11.0128 14.5235 12.0194 14.5249C12.6817 14.5256 13.186 14.2602 13.5186 13.7077C14.5368 12.0175 15.555 10.3265 16.571 8.63419C16.8949 8.09499 16.8935 7.5502 16.5703 7.0117C15.5543 5.32006 14.5361 3.62912 13.5179 1.93819C13.1933 1.39898 12.7028 1.12589 12.0543 1.12519C10.0172 1.1231 7.9808 1.1231 5.94368 1.12519C5.29448 1.12519 4.80613 1.40178 4.48153 1.94028C3.46333 3.63052 2.44514 5.32146 1.42913 7.01379C1.10526 7.55299 1.10598 8.09708 1.42913 8.63628C2.44514 10.3279 3.46333 12.0189 4.48153 13.7098C4.80613 14.249 5.29667 14.5221 5.94514 14.5242C6.96333 14.527 7.98226 14.5249 9.00045 14.5249Z" fill="#C7C9DA"/>
<path d="M9.02617 4.52522C10.9345 4.53709 12.4512 6.01431 12.4388 7.84982C12.4257 9.68185 10.8879 11.1353 8.97377 11.1241C7.06692 11.113 5.54946 9.63435 5.5611 7.79884C5.57347 5.96751 7.11278 4.51335 9.02617 4.52522ZM11.2707 7.82119C11.2693 6.61427 10.2707 5.65181 9.01452 5.64553C7.74087 5.63924 6.72704 6.60659 6.7285 7.82747C6.72995 9.03299 7.72995 9.99754 8.98468 10.0038C10.2583 10.0101 11.2722 9.04207 11.2707 7.82188V7.82119Z" fill="#C7C9DA"/>
</g>
<defs>
<clipPath id="clip0_580_274">
<rect width="18" height="15.6522" fill="white"/>
</clipPath>
</defs>
</svg>
