<svg width="18" height="18" viewBox="0 0 18 18" fill="none" xmlns="http://www.w3.org/2000/svg">
<g clip-path="url(#clip0_580_173)">
<path d="M9.00627 18C13.9784 17.9979 17.9873 13.9507 17.9999 8.95345C18.0126 3.89694 13.7543 -0.00282288 8.99503 0.000703812C4.23437 0.00352478 -0.0330748 3.91528 -5.37608e-05 9C0.0322647 13.9712 4.04538 18.0021 9.00627 18ZM1.41283 8.98589C1.39175 4.61638 4.97208 1.44028 8.96833 1.42265C12.9836 1.40431 16.5892 4.58252 16.5892 8.95768C16.5892 13.1579 13.2112 16.5717 9.03226 16.5865C4.83367 16.6006 1.42126 13.1967 1.41283 8.9866V8.98589Z" fill="#C7C9DA"/>
<path d="M9.70456 7.45177C9.70456 6.73586 9.70667 6.01995 9.70386 5.30474C9.70175 4.80325 9.4158 4.4781 8.99145 4.48374C8.57974 4.48938 8.29871 4.80819 8.29801 5.28782C8.2952 6.73092 8.2952 8.17402 8.29801 9.61713C8.29871 10.1158 8.59028 10.4473 9.00972 10.441C9.43126 10.4346 9.70246 10.1087 9.70386 9.59879C9.70597 8.88288 9.70386 8.16697 9.70386 7.45177H9.70456Z" fill="#C7C9DA"/>
<path d="M9.94565 12.2656C9.95198 11.7324 9.5227 11.2965 8.99507 11.2993C8.48148 11.3029 8.06205 11.7232 8.05502 12.2417C8.048 12.7622 8.45549 13.1896 8.97118 13.203C9.50584 13.2171 9.93933 12.8003 9.94565 12.2649V12.2656Z" fill="#C7C9DA"/>
</g>
<defs>
<clipPath id="clip0_580_173">
<rect width="18" height="18" fill="white" transform="matrix(1 0 0 -1 0 18)"/>
</clipPath>
</defs>
</svg>
