<svg width="24" height="24" viewBox="0 0 24 24" fill="none" xmlns="http://www.w3.org/2000/svg">
<path d="M17.5805 11.2933C17.5795 12.7053 17.154 13.9769 16.3005 15.1031C16.2216 15.2075 16.2216 15.2639 16.3166 15.3571C17.1337 16.1569 17.9451 16.963 18.7592 17.7661C18.9726 17.9767 19.0544 18.2237 18.963 18.5128C18.8138 18.9845 18.216 19.1646 17.858 18.8234C17.2284 18.2234 16.6125 17.6079 16.0102 16.9807C15.7952 16.7566 15.5703 16.5411 15.3635 16.3094C15.2888 16.2258 15.2339 16.2258 15.1471 16.2934C14.5625 16.7471 13.9185 17.0952 13.2073 17.3009C10.9939 17.9409 8.97876 17.5476 7.20726 16.0719C6.0085 15.0733 5.29339 13.7738 5.0731 12.2335C4.79067 10.2582 5.32692 8.50925 6.67692 7.03064C7.73331 5.87386 9.0603 5.20722 10.6161 5.04122C12.407 4.84963 14.023 5.32402 15.3875 6.50409C16.6484 7.59459 17.3733 8.9902 17.5519 10.6558C17.5634 10.7644 17.5749 10.873 17.5798 10.9819C17.5844 11.0856 17.5808 11.1896 17.5808 11.2933H17.5805ZM11.1484 6.42338C8.49446 6.48539 6.15547 8.8137 6.44348 11.8041C6.69961 14.465 9.10403 16.4745 11.856 16.1795C14.2538 15.9227 16.4629 13.8456 16.172 10.7706C15.9227 8.13886 13.6022 6.31315 11.1488 6.42305L11.1484 6.42338Z" fill="#939598"/>
</svg>
