<svg width="26" height="28" viewBox="0 0 26 28" fill="none" xmlns="http://www.w3.org/2000/svg">
<g clip-path="url(#clip0_644_56)">
<path d="M2.13135 5.9882C2.13135 4.76745 3.12096 3.77783 4.34171 3.77783H13.1832C14.4039 3.77783 15.3935 4.76745 15.3935 5.9882V10.4089C15.3935 11.6297 14.4039 12.6193 13.1832 12.6193H4.34171C3.12096 12.6193 2.13135 11.6297 2.13135 10.4089V5.9882Z" fill="#28303F"/>
<path d="M2.13135 5.9882C2.13135 4.76745 3.12096 3.77783 4.34171 3.77783H13.1832C14.4039 3.77783 15.3935 4.76745 15.3935 5.9882V10.4089C15.3935 11.6297 14.4039 12.6193 13.1832 12.6193H4.34171C3.12096 12.6193 2.13135 11.6297 2.13135 10.4089V5.9882Z" fill="url(#paint0_linear_644_56)"/>
<path d="M10.9727 17.2857C10.9727 16.0649 11.9623 15.0753 13.183 15.0753H22.0245C23.2452 15.0753 24.2349 16.0649 24.2349 17.2857V21.7064C24.2349 22.9272 23.2452 23.9168 22.0245 23.9168H13.183C11.9623 23.9168 10.9727 22.9272 10.9727 21.7064V17.2857Z" fill="#28303F"/>
<path d="M10.9727 17.2857C10.9727 16.0649 11.9623 15.0753 13.183 15.0753H22.0245C23.2452 15.0753 24.2349 16.0649 24.2349 17.2857V21.7064C24.2349 22.9272 23.2452 23.9168 22.0245 23.9168H13.183C11.9623 23.9168 10.9727 22.9272 10.9727 21.7064V17.2857Z" fill="url(#paint1_linear_644_56)"/>
<path d="M10.9727 17.2857C10.9727 16.0649 11.9623 15.0753 13.183 15.0753H22.0245C23.2452 15.0753 24.2349 16.0649 24.2349 17.2857V21.7064C24.2349 22.9272 23.2452 23.9168 22.0245 23.9168H13.183C11.9623 23.9168 10.9727 22.9272 10.9727 21.7064V17.2857Z" fill="url(#paint2_linear_644_56)"/>
<path fill-rule="evenodd" clip-rule="evenodd" d="M22.6913 9.02744L21.8959 9.82281C21.5722 10.1465 21.5722 10.6713 21.8959 10.995C22.2196 11.3187 22.7444 11.3187 23.0681 10.995L24.497 9.56615C25.2523 8.81085 25.2523 7.58626 24.497 6.83096L23.0681 5.40208C22.7444 5.07838 22.2196 5.07838 21.8959 5.40208C21.5722 5.72578 21.5722 6.2506 21.8959 6.5743L22.6913 7.36967L17.6035 7.36967C17.1457 7.36967 16.7746 7.74077 16.7746 8.19855C16.7746 8.65634 17.1457 9.02744 17.6035 9.02744L22.6913 9.02744Z" fill="#28303F"/>
<path fill-rule="evenodd" clip-rule="evenodd" d="M22.6913 9.02744L21.8959 9.82281C21.5722 10.1465 21.5722 10.6713 21.8959 10.995C22.2196 11.3187 22.7444 11.3187 23.0681 10.995L24.497 9.56615C25.2523 8.81085 25.2523 7.58626 24.497 6.83096L23.0681 5.40208C22.7444 5.07838 22.2196 5.07838 21.8959 5.40208C21.5722 5.72578 21.5722 6.2506 21.8959 6.5743L22.6913 7.36967L17.6035 7.36967C17.1457 7.36967 16.7746 7.74077 16.7746 8.19855C16.7746 8.65634 17.1457 9.02744 17.6035 9.02744L22.6913 9.02744Z" fill="url(#paint3_linear_644_56)"/>
<path fill-rule="evenodd" clip-rule="evenodd" d="M3.67446 20.3249L4.46983 21.1203C4.79353 21.444 4.79353 21.9688 4.46983 22.2925C4.14613 22.6162 3.62131 22.6162 3.29761 22.2925L1.86872 20.8636C1.11342 20.1083 1.11342 18.8837 1.86872 18.1284L3.29761 16.6996C3.62131 16.3759 4.14613 16.3759 4.46983 16.6996C4.79353 17.0233 4.79353 17.5481 4.46983 17.8718L3.67446 18.6672L8.76223 18.6672C9.22001 18.6672 9.59112 19.0383 9.59112 19.496C9.59112 19.9538 9.22001 20.3249 8.76223 20.3249L3.67446 20.3249Z" fill="#28303F"/>
<path fill-rule="evenodd" clip-rule="evenodd" d="M3.67446 20.3249L4.46983 21.1203C4.79353 21.444 4.79353 21.9688 4.46983 22.2925C4.14613 22.6162 3.62131 22.6162 3.29761 22.2925L1.86872 20.8636C1.11342 20.1083 1.11342 18.8837 1.86872 18.1284L3.29761 16.6996C3.62131 16.3759 4.14613 16.3759 4.46983 16.6996C4.79353 17.0233 4.79353 17.5481 4.46983 17.8718L3.67446 18.6672L8.76223 18.6672C9.22001 18.6672 9.59112 19.0383 9.59112 19.496C9.59112 19.9538 9.22001 20.3249 8.76223 20.3249L3.67446 20.3249Z" fill="url(#paint4_linear_644_56)"/>
</g>
<defs>
<linearGradient id="paint0_linear_644_56" x1="8.76244" y1="3.77783" x2="8.76244" y2="12.6193" gradientUnits="userSpaceOnUse">
<stop stop-color="#B3DDFF"/>
<stop offset="1" stop-color="#72D8F8"/>
</linearGradient>
<linearGradient id="paint1_linear_644_56" x1="17.6038" y1="15.0753" x2="17.6038" y2="23.9168" gradientUnits="userSpaceOnUse">
<stop stop-color="#B7D3FF"/>
<stop offset="1" stop-color="#75ABFF"/>
</linearGradient>
<linearGradient id="paint2_linear_644_56" x1="17.6038" y1="15.0753" x2="17.6038" y2="23.9168" gradientUnits="userSpaceOnUse">
<stop stop-color="#B3DDFF"/>
<stop offset="1" stop-color="#72D8F8"/>
</linearGradient>
<linearGradient id="paint3_linear_644_56" x1="20.919" y1="11.2378" x2="20.919" y2="5.1593" gradientUnits="userSpaceOnUse">
<stop stop-color="#0097D9"/>
<stop offset="1" stop-color="#6AD2FF"/>
</linearGradient>
<linearGradient id="paint4_linear_644_56" x1="5.44668" y1="22.5353" x2="5.44668" y2="16.4568" gradientUnits="userSpaceOnUse">
<stop stop-color="#0097D9"/>
<stop offset="1" stop-color="#6AD2FF"/>
</linearGradient>
<clipPath id="clip0_644_56">
<rect width="25" height="25" fill="white" transform="translate(0 1)"/>
</clipPath>
</defs>
</svg>
