<svg width="24" height="24" viewBox="0 0 24 24" fill="none" xmlns="http://www.w3.org/2000/svg">
<path fill-rule="evenodd" clip-rule="evenodd" d="M20.25 5.625C20.25 5.27982 19.9702 5 19.625 5C19.2798 5 19 5.27982 19 5.625V18.9583C19 19.3035 19.2798 19.5833 19.625 19.5833C19.9702 19.5833 20.25 19.3035 20.25 18.9583V5.625ZM15.25 8.95833C15.25 8.61316 14.9702 8.33333 14.625 8.33333C14.2798 8.33333 14 8.61316 14 8.95833V18.9583C14 19.3035 14.2798 19.5833 14.625 19.5833C14.9702 19.5833 15.25 19.3035 15.25 18.9583V8.95833ZM9.625 11.6667C9.97018 11.6667 10.25 11.9465 10.25 12.2917V18.9583C10.25 19.3035 9.97018 19.5833 9.625 19.5833C9.27982 19.5833 9 19.3035 9 18.9583V12.2917C9 11.9465 9.27982 11.6667 9.625 11.6667ZM5.25 15.625C5.25 15.2798 4.97018 15 4.625 15C4.27982 15 4 15.2798 4 15.625V18.9583C4 19.3035 4.27982 19.5833 4.625 19.5833C4.97018 19.5833 5.25 19.3035 5.25 18.9583V15.625Z" fill="#0D0B0E"/>
<path d="M19.625 5.15C19.8873 5.15 20.1 5.36266 20.1 5.625H20.4C20.4 5.19698 20.053 4.85 19.625 4.85V5.15ZM19.15 5.625C19.15 5.36266 19.3627 5.15 19.625 5.15V4.85C19.197 4.85 18.85 5.19698 18.85 5.625H19.15ZM19.15 18.9583V5.625H18.85V18.9583H19.15ZM19.625 19.4333C19.3627 19.4333 19.15 19.2207 19.15 18.9583H18.85C18.85 19.3864 19.197 19.7333 19.625 19.7333V19.4333ZM20.1 18.9583C20.1 19.2207 19.8873 19.4333 19.625 19.4333V19.7333C20.053 19.7333 20.4 19.3864 20.4 18.9583H20.1ZM20.1 5.625V18.9583H20.4V5.625H20.1ZM14.625 8.48333C14.8873 8.48333 15.1 8.696 15.1 8.95833H15.4C15.4 8.53031 15.053 8.18333 14.625 8.18333V8.48333ZM14.15 8.95833C14.15 8.696 14.3627 8.48333 14.625 8.48333V8.18333C14.197 8.18333 13.85 8.53031 13.85 8.95833H14.15ZM14.15 18.9583V8.95833H13.85V18.9583H14.15ZM14.625 19.4333C14.3627 19.4333 14.15 19.2207 14.15 18.9583H13.85C13.85 19.3864 14.197 19.7333 14.625 19.7333V19.4333ZM15.1 18.9583C15.1 19.2207 14.8873 19.4333 14.625 19.4333V19.7333C15.053 19.7333 15.4 19.3864 15.4 18.9583H15.1ZM15.1 8.95833V18.9583H15.4V8.95833H15.1ZM10.4 12.2917C10.4 11.8636 10.053 11.5167 9.625 11.5167V11.8167C9.88734 11.8167 10.1 12.0293 10.1 12.2917H10.4ZM10.4 18.9583V12.2917H10.1V18.9583H10.4ZM9.625 19.7333C10.053 19.7333 10.4 19.3864 10.4 18.9583H10.1C10.1 19.2207 9.88734 19.4333 9.625 19.4333V19.7333ZM8.85 18.9583C8.85 19.3864 9.19698 19.7333 9.625 19.7333V19.4333C9.36266 19.4333 9.15 19.2207 9.15 18.9583H8.85ZM8.85 12.2917V18.9583H9.15V12.2917H8.85ZM9.625 11.5167C9.19698 11.5167 8.85 11.8636 8.85 12.2917H9.15C9.15 12.0293 9.36266 11.8167 9.625 11.8167V11.5167ZM4.625 15.15C4.88734 15.15 5.1 15.3627 5.1 15.625H5.4C5.4 15.197 5.05302 14.85 4.625 14.85V15.15ZM4.15 15.625C4.15 15.3627 4.36266 15.15 4.625 15.15V14.85C4.19698 14.85 3.85 15.197 3.85 15.625H4.15ZM4.15 18.9583V15.625H3.85V18.9583H4.15ZM4.625 19.4333C4.36266 19.4333 4.15 19.2207 4.15 18.9583H3.85C3.85 19.3864 4.19698 19.7333 4.625 19.7333V19.4333ZM5.1 18.9583C5.1 19.2207 4.88734 19.4333 4.625 19.4333V19.7333C5.05302 19.7333 5.4 19.3864 5.4 18.9583H5.1ZM5.1 15.625V18.9583H5.4V15.625H5.1Z" fill="#0D0B0E"/>
</svg>
