<svg width="32" height="32" viewBox="0 0 32 32" fill="none" xmlns="http://www.w3.org/2000/svg">
<path d="M9.29996 24.1014C9.4263 23.5639 9.54951 23.0254 9.67986 22.4893C9.96691 21.3097 10.254 20.1296 10.5508 18.9528C10.5955 18.775 10.5526 18.6787 10.4209 18.5657C9.14327 17.4694 7.87276 16.3634 6.59778 15.2643C6.22235 14.9403 6.00315 14.5398 6.00003 14.0273C5.99512 13.2032 6.60046 12.5347 7.39375 12.4824C9.07095 12.3713 10.7477 12.2583 12.4253 12.1523C12.5945 12.1417 12.6825 12.0879 12.7485 11.9134C13.3633 10.2856 13.9905 8.66341 14.611 7.03795C14.8463 6.42221 15.2655 6.05045 15.9096 6.00415C16.5793 5.956 17.1096 6.32869 17.377 7.01665C17.7712 8.031 18.156 9.04906 18.5449 10.0653C18.7832 10.6879 19.0274 11.3083 19.2556 11.9347C19.3131 12.0926 19.3984 12.1403 19.5493 12.1495C21.2042 12.2555 22.8591 12.3685 24.5139 12.4759C25.2126 12.5213 25.709 12.8893 25.9166 13.5278C26.1215 14.1588 25.9469 14.7847 25.4148 15.2481C24.1389 16.3588 22.8599 17.4657 21.5756 18.5657C21.4332 18.6875 21.4055 18.7949 21.4506 18.975C21.8644 20.6296 22.2698 22.287 22.6769 23.9435C22.9251 24.9541 22.4247 25.8213 21.497 25.9815C21.093 26.0514 20.7377 25.9166 20.4006 25.6935C18.9966 24.7653 17.5891 23.8435 16.1873 22.912C16.0489 22.8199 15.9552 22.8162 15.8141 22.9097C14.5057 23.7778 13.1843 24.625 11.8816 25.5023C10.8004 26.2301 9.59103 25.5426 9.37407 24.4778C9.34951 24.3579 9.34416 24.2338 9.32987 24.112C9.3196 24.1083 9.30978 24.1041 9.29951 24.1004L9.29996 24.1014ZM21.3256 24.5379C21.3002 24.412 21.2894 24.3458 21.2738 24.2805C20.8636 22.6009 20.4578 20.9199 20.0404 19.2421C19.8605 18.5194 20.0542 17.9444 20.6033 17.4727C21.8751 16.3805 23.1403 15.2801 24.4099 14.1847C24.4688 14.1338 24.5434 14.1028 24.6108 14.062C24.5889 14.0324 24.5671 14.0032 24.5452 13.9736C24.0805 13.9407 23.6153 13.906 23.1506 13.8754C21.8966 13.7926 20.6421 13.7097 19.3877 13.6301C18.6645 13.5842 18.1935 13.2079 17.9306 12.506C17.3824 11.0412 16.8163 9.58378 16.2574 8.1236C16.1793 7.91943 16.0985 7.71665 15.9998 7.4648C15.9436 7.60276 15.9056 7.69165 15.8713 7.78147C15.2623 9.37035 14.6503 10.9583 14.0467 12.5495C13.8481 13.0731 13.5168 13.4389 12.9816 13.5713C12.7954 13.6176 12.5994 13.6268 12.407 13.6393C10.9156 13.7393 9.42362 13.8356 7.93213 13.9352C7.7674 13.9463 7.60357 13.968 7.38795 13.9898C7.48303 14.081 7.53393 14.1342 7.58928 14.1824C8.85711 15.2796 10.1232 16.3787 11.3941 17.4717C11.9428 17.9435 12.1356 18.5199 11.9557 19.2421C11.566 20.8079 11.1861 22.3764 10.8111 23.9463C10.7865 24.0481 10.8397 24.1704 10.8562 24.2829C10.9557 24.2592 11.0709 24.2606 11.1526 24.2074C12.4749 23.3467 13.7954 22.4838 15.111 21.6116C15.7083 21.2153 16.2904 21.2134 16.8851 21.6111C17.6096 22.0954 18.3399 22.5708 19.0681 23.0504C19.8015 23.5333 20.535 24.0162 21.3252 24.537L21.3256 24.5379Z" fill="black"/>
</svg>
