<svg width="6" height="11" viewBox="0 0 6 11" fill="none" xmlns="http://www.w3.org/2000/svg">
<path d="M1.3664 10.4451C1.2767 10.4451 1.19431 10.4071 1.122 10.3324C0.976159 10.182 0.960598 9.94013 1.08569 9.76989C1.11041 9.73625 1.14367 9.69991 1.17845 9.66155L1.20042 9.63767C2.26801 8.46009 3.3356 7.28218 4.40441 6.10562C4.41387 6.09519 4.43675 6.07635 4.4636 6.05448C4.48679 6.0353 4.51334 6.01377 4.54446 5.98685L4.84774 5.72476L4.5469 5.4593C4.51334 5.42969 4.48405 5.40513 4.45811 5.38326C4.4218 5.35265 4.39587 5.33078 4.38 5.31362C3.13728 3.94528 2.1124 2.81548 1.15495 1.75802C0.972802 1.55682 0.949919 1.32804 1.09332 1.14602C1.16746 1.05181 1.26693 1 1.37342 1C1.4799 1 1.57998 1.04979 1.66266 1.13996C2.04467 1.55615 2.43094 1.98277 2.80409 2.39526C2.95573 2.56281 3.10707 2.73002 3.25902 2.89724L3.66451 3.34404C4.2665 4.00786 4.86849 4.67134 5.47017 5.33549C5.73287 5.62551 5.73226 5.82166 5.46773 6.11302L4.83371 6.81216C3.78686 7.96686 2.73971 9.12155 1.69195 10.2756C1.59279 10.3849 1.47685 10.4451 1.36609 10.4451H1.3664Z" fill="#25314C" stroke="#25314C" stroke-width="0.4"/>
</svg>
