<svg width="16" height="16" viewBox="0 0 16 16" fill="none" xmlns="http://www.w3.org/2000/svg">
<path d="M12.6666 7.33335H8.66663V3.33335C8.66663 2.96535 8.36796 2.66669 7.99996 2.66669C7.63196 2.66669 7.33329 2.96535 7.33329 3.33335V7.33335H3.33329C2.96529 7.33335 2.66663 7.63202 2.66663 8.00002C2.66663 8.36802 2.96529 8.66669 3.33329 8.66669H7.33329V12.6667C7.33329 13.0347 7.63196 13.3334 7.99996 13.3334C8.36796 13.3334 8.66663 13.0347 8.66663 12.6667V8.66669H12.6666C13.0346 8.66669 13.3333 8.36802 13.3333 8.00002C13.3333 7.63202 13.0346 7.33335 12.6666 7.33335Z" fill="white"/>
</svg>
