<svg width="15" height="14" viewBox="0 0 15 14" fill="none" xmlns="http://www.w3.org/2000/svg">
<g clip-path="url(#clip0_580_178)">
<path d="M1.20406 11.3376C1.20406 12.3389 1.20481 13.3109 1.20293 14.2832C1.20293 14.3775 1.19842 14.4755 1.17285 14.5651C1.09276 14.8478 0.824654 15.0263 0.541883 14.9969C0.254224 14.9672 0.022969 14.7238 0.00266363 14.4274C-0.00109662 14.3706 0.00115953 14.313 0.00115953 14.2558C0.00115953 10.0864 0.00115953 5.91665 0.00115953 1.74728C0.000783507 1.21514 0.215118 1 0.74456 1C5.26174 1 9.77931 1 14.2965 1C14.6744 1 14.9 1.15487 14.9805 1.46615C15.041 1.69884 14.9534 1.88575 14.8135 2.06275C13.7716 3.38184 12.7334 4.7036 11.6876 6.01964C11.5876 6.14553 11.5816 6.22258 11.6846 6.35228C12.7266 7.66298 13.7607 8.98016 14.7989 10.2939C14.9647 10.5041 15.0749 10.7204 14.9387 10.9905C14.8056 11.2548 14.5826 11.3395 14.3025 11.3395C10.0233 11.3372 5.74418 11.338 1.46465 11.338C1.38455 11.338 1.30446 11.338 1.20369 11.338L1.20406 11.3376Z" fill="#EBFF00"/>
</g>
<defs>
<clipPath id="clip0_580_178">
<rect width="15" height="14" fill="white"/>
</clipPath>
</defs>
</svg>
