<svg width="16" height="16" viewBox="0 0 16 16" fill="none" xmlns="http://www.w3.org/2000/svg">
<g clip-path="url(#clip0_580_277)">
<path d="M8.14226 8.51465C8.51668 8.52321 8.97476 8.49667 9.43166 8.53577C10.1728 8.59884 10.8857 8.77321 11.5562 9.08087C13.3966 9.92563 14.7462 11.2316 15.5306 13.0541C15.8436 13.7816 16.0003 14.5433 16.0003 15.3321C16.0003 15.6312 15.8095 15.8809 15.52 15.9694C15.2399 16.055 14.9352 15.9574 14.7581 15.7251C14.6705 15.6104 14.6302 15.48 14.6281 15.339C14.61 14.0127 14.0778 12.8834 13.1969 11.8889C12.7629 11.3988 12.2552 10.9907 11.6897 10.6465C10.8059 10.1089 9.84761 9.82517 8.79794 9.83459C8.23215 9.83973 7.66637 9.83459 7.10059 9.83573C6.14497 9.8383 5.26559 10.1046 4.45029 10.5698C3.20332 11.2815 2.28211 12.2718 1.73413 13.5701C1.49767 14.1303 1.3784 14.7154 1.37247 15.3216C1.36861 15.6994 1.08498 15.9868 0.714417 15.9979C0.320121 16.0099 0.0035568 15.7208 0.000886621 15.3393C-0.00326699 14.7884 0.0765416 14.2479 0.234379 13.7191C0.677628 12.2336 1.56057 11.0312 2.79894 10.0626C3.53858 9.48413 4.36307 9.05318 5.27627 8.7832C5.8818 8.60426 6.5004 8.51065 7.13471 8.51379C7.44297 8.51522 7.75152 8.51379 8.14285 8.51379L8.14226 8.51465Z" fill="#C7C9DA"/>
<path d="M4.11792 3.72007C4.14017 2.66154 4.50806 1.74086 5.31386 1.00426C6.01375 0.364412 6.86079 0.0473401 7.81879 0.00481648C8.65633 -0.0322846 9.43988 0.149511 10.1507 0.586448C10.8218 0.998841 11.325 1.55878 11.6015 2.27455C11.9427 3.15756 11.9783 4.05968 11.6816 4.97066C11.3775 5.90475 10.7598 6.57457 9.88491 7.04889C9.0714 7.49011 8.20329 7.57687 7.2978 7.44302C6.9762 7.39536 6.6629 7.31202 6.37155 7.17389C5.23791 6.6365 4.49709 5.79116 4.21434 4.59422C4.1464 4.30712 4.11466 4.01545 4.11822 3.72007H4.11792ZM8.01074 6.16332C9.46154 6.16189 10.5287 5.13276 10.5258 3.73776C10.5228 2.34162 9.45264 1.31648 8.00243 1.32076C6.5549 1.32505 5.49098 2.35103 5.49247 3.74118C5.49395 5.13818 6.56113 6.16474 8.01104 6.16332H8.01074Z" fill="#C7C9DA"/>
</g>
<defs>
<clipPath id="clip0_580_277">
<rect width="16" height="16" fill="white"/>
</clipPath>
</defs>
</svg>
