<svg width="26" height="28" viewBox="0 0 26 28" fill="none" xmlns="http://www.w3.org/2000/svg">
<g opacity="0.5">
<path fill-rule="evenodd" clip-rule="evenodd" d="M21.1389 22.1061L22.7152 12.7925C22.856 11.9595 22.5668 11.1103 21.9601 10.5724L14.7213 4.16388C13.7213 3.27838 12.2794 3.27838 11.2795 4.16388L4.04066 10.5724C3.43291 11.1103 3.14363 11.9595 3.28555 12.7925L4.86189 22.1049C5.09697 23.4909 6.21818 24.4989 7.52684 24.4989H18.475C19.7825 24.5001 20.9038 23.4921 21.1389 22.1061Z" fill="#25314C"/>
<path fill-rule="evenodd" clip-rule="evenodd" d="M21.1389 22.1061L22.7152 12.7925C22.856 11.9595 22.5668 11.1103 21.9601 10.5724L14.7213 4.16388C13.7213 3.27838 12.2794 3.27838 11.2795 4.16388L4.04066 10.5724C3.43291 11.1103 3.14363 11.9595 3.28555 12.7925L4.86189 22.1049C5.09697 23.4909 6.21818 24.4989 7.52684 24.4989H18.475C19.7825 24.5001 20.9038 23.4921 21.1389 22.1061Z" fill="url(#paint0_linear_644_50)"/>
</g>
<path fill-rule="evenodd" clip-rule="evenodd" d="M16.25 22.1667V17.4028C16.25 15.5231 14.7953 14 13 14C11.2047 14 9.75 15.5231 9.75 17.4028V22.1667H16.25Z" fill="#25314C"/>
<path fill-rule="evenodd" clip-rule="evenodd" d="M16.25 22.1667V17.4028C16.25 15.5231 14.7953 14 13 14C11.2047 14 9.75 15.5231 9.75 17.4028V22.1667H16.25Z" fill="url(#paint1_linear_644_50)"/>
<defs>
<linearGradient id="paint0_linear_644_50" x1="13.0001" y1="3.49976" x2="13.0001" y2="24.4989" gradientUnits="userSpaceOnUse">
<stop stop-color="#1999FF"/>
<stop offset="1" stop-color="#72D8F8"/>
</linearGradient>
<linearGradient id="paint1_linear_644_50" x1="13" y1="14" x2="13" y2="22.1667" gradientUnits="userSpaceOnUse">
<stop stop-color="#6AD2FF"/>
<stop offset="1" stop-color="#0097D9"/>
</linearGradient>
</defs>
</svg>
