<svg width="24" height="24" viewBox="0 0 24 24" fill="none" xmlns="http://www.w3.org/2000/svg">
<path d="M11.9515 17.8104C10.2624 17.8104 8.57272 17.8115 6.88361 17.8104C5.70102 17.8088 5.00095 17.1098 5.00041 15.9332C4.99986 13.2447 4.99986 10.5562 5.00041 7.86828C5.0015 6.71022 5.70538 6.00742 6.86944 6.0047C7.77778 6.00252 8.68613 6.01451 9.59393 6.00034C10.2051 5.99052 10.7056 6.19498 11.1162 6.65024C11.475 7.04826 11.8593 7.42283 12.2181 7.8203C12.4285 8.05311 12.6668 8.15452 12.9836 8.15234C14.3461 8.14143 15.7081 8.14689 17.0706 8.14798C18.2466 8.14852 18.9598 8.85677 18.9598 10.0241C18.9603 11.9951 18.9603 13.9661 18.9598 15.9365C18.9598 17.1017 18.2608 17.8072 17.1011 17.8088C15.3848 17.811 13.6678 17.8094 11.9515 17.8094V17.8104ZM11.9809 16.7598C13.6618 16.7598 15.3428 16.7598 17.0232 16.7598C17.6834 16.7598 17.9102 16.5363 17.9102 15.882C17.9102 13.9557 17.9102 12.03 17.9102 10.1037C17.9102 9.42653 17.6889 9.20353 17.0139 9.20353C15.6781 9.20299 14.3428 9.19263 13.007 9.20789C12.374 9.21498 11.861 9.00671 11.4401 8.5329C11.078 8.12562 10.6882 7.74342 10.3191 7.34213C10.1342 7.14095 9.91997 7.04935 9.64518 7.05153C8.7183 7.05916 7.79196 7.05371 6.86508 7.0548C6.30241 7.05535 6.05106 7.30397 6.05051 7.86882C6.04888 10.5579 6.04888 13.2475 6.05051 15.9365C6.05051 16.5166 6.29859 16.7593 6.88361 16.7593C8.58253 16.7598 10.282 16.7598 11.9809 16.7598Z" fill="#64B1EE"/>
</svg>
