<svg width="24" height="24" viewBox="0 0 24 24" fill="none" xmlns="http://www.w3.org/2000/svg">
<mask id="path-1-outside-1_705_362" maskUnits="userSpaceOnUse" x="2" y="2" width="20" height="20" fill="black">
<rect fill="white" x="2" y="2" width="20" height="20"/>
<path fill-rule="evenodd" clip-rule="evenodd" d="M20.4033 8.34931V8.57297V8.57336L20.34 8.58589C20.3364 8.58009 20.3325 8.57443 20.3286 8.56878C20.3212 8.55802 20.3139 8.54731 20.3082 8.53576C20.2882 8.49463 20.2697 8.45311 20.2516 8.4112C19.8285 7.43744 19.2643 6.54986 18.5142 5.79976C16.2279 3.51266 13.4706 2.56554 10.283 3.18598C7.24231 3.77783 5.07546 5.56475 3.7675 8.36928C3.64373 8.63485 3.54669 8.91335 3.452 9.19067C3.39306 9.36262 3.47754 9.52126 3.6288 9.57492C3.78007 9.62819 3.9278 9.56591 4.00481 9.41119C4.02759 9.36515 4.04442 9.31589 4.06121 9.26676C4.06556 9.25403 4.06991 9.24131 4.07435 9.22866C4.56233 7.85342 5.33635 6.66502 6.44747 5.71398C8.53102 3.9306 10.9419 3.23142 13.6364 3.78058C16.4979 4.3642 18.5209 6.05162 19.7232 8.70849C19.7487 8.76477 19.7678 8.82391 19.7897 8.89167C19.8011 8.9272 19.8134 8.96509 19.8277 9.00618C19.7886 9.00942 19.7527 9.01305 19.7191 9.01645C19.6512 9.02333 19.5923 9.02929 19.5334 9.02929C19.2342 9.03011 18.935 9.03004 18.6358 9.02996C18.2215 9.02986 17.8072 9.02976 17.3929 9.03203C17.1383 9.03321 16.998 9.20595 17.0711 9.42177C17.1285 9.59137 17.2699 9.62663 17.433 9.62663C18.0389 9.62573 18.6449 9.62586 19.2508 9.62599C19.7053 9.62608 20.1598 9.62618 20.6143 9.62584C20.905 9.62545 20.9985 9.52949 20.9985 9.23611V6.45585C20.9985 6.41242 20.999 6.36893 20.9994 6.32542C21.0007 6.20571 21.0019 6.08585 20.9938 5.96663C20.9824 5.7982 20.8304 5.66541 20.6803 5.6756C20.5279 5.68578 20.4159 5.80838 20.4053 5.98034C20.4021 6.03316 20.4023 6.08625 20.4024 6.13938C20.4025 6.15165 20.4025 6.16392 20.4025 6.17618C20.4025 6.53831 20.4027 6.90053 20.4029 7.26275C20.4031 7.62497 20.4033 7.98719 20.4033 8.34931ZM3.59446 15.6473V15.4174H3.59485C3.60526 15.4154 3.61558 15.4134 3.62589 15.4113C3.6362 15.4093 3.64652 15.4072 3.65693 15.4052C3.66607 15.423 3.67554 15.4405 3.68499 15.458C3.70519 15.4954 3.72533 15.5328 3.74219 15.5717C4.30561 16.8706 5.12127 17.9896 6.21864 18.8839C8.35131 20.6222 10.8026 21.3433 13.5144 20.8451C16.935 20.216 19.261 18.2078 20.4939 14.9575C20.6094 14.6528 20.5599 14.4754 20.3615 14.4131C20.1631 14.3504 20.0362 14.4491 19.9301 14.7523C18.5636 18.6594 14.5246 21.0128 10.504 20.2356C7.54586 19.6638 5.4682 17.9583 4.24746 15.2137C4.14688 14.9873 4.16731 14.9607 4.42073 14.9603C4.73584 14.9598 5.05096 14.9598 5.36608 14.9598C5.77115 14.9598 6.17622 14.9598 6.58129 14.9587C6.81703 14.9579 6.94787 14.8522 6.95062 14.672C6.95337 14.4879 6.80603 14.3645 6.575 14.3645C5.50788 14.3637 4.44037 14.3633 3.37326 14.3645C3.09665 14.3645 3 14.4644 3 14.7456C3 15.8032 3 16.8608 3.00039 17.918C3.00079 18.1506 3.1163 18.3085 3.28917 18.3163C3.46952 18.3245 3.59407 18.1651 3.59407 17.9188C3.59466 17.3509 3.59458 16.783 3.59451 16.2152C3.59448 16.0259 3.59446 15.8366 3.59446 15.6473Z"/>
</mask>
<path fill-rule="evenodd" clip-rule="evenodd" d="M20.4033 8.34931V8.57297V8.57336L20.34 8.58589C20.3364 8.58009 20.3325 8.57443 20.3286 8.56878C20.3212 8.55802 20.3139 8.54731 20.3082 8.53576C20.2882 8.49463 20.2697 8.45311 20.2516 8.4112C19.8285 7.43744 19.2643 6.54986 18.5142 5.79976C16.2279 3.51266 13.4706 2.56554 10.283 3.18598C7.24231 3.77783 5.07546 5.56475 3.7675 8.36928C3.64373 8.63485 3.54669 8.91335 3.452 9.19067C3.39306 9.36262 3.47754 9.52126 3.6288 9.57492C3.78007 9.62819 3.9278 9.56591 4.00481 9.41119C4.02759 9.36515 4.04442 9.31589 4.06121 9.26676C4.06556 9.25403 4.06991 9.24131 4.07435 9.22866C4.56233 7.85342 5.33635 6.66502 6.44747 5.71398C8.53102 3.9306 10.9419 3.23142 13.6364 3.78058C16.4979 4.3642 18.5209 6.05162 19.7232 8.70849C19.7487 8.76477 19.7678 8.82391 19.7897 8.89167C19.8011 8.9272 19.8134 8.96509 19.8277 9.00618C19.7886 9.00942 19.7527 9.01305 19.7191 9.01645C19.6512 9.02333 19.5923 9.02929 19.5334 9.02929C19.2342 9.03011 18.935 9.03004 18.6358 9.02996C18.2215 9.02986 17.8072 9.02976 17.3929 9.03203C17.1383 9.03321 16.998 9.20595 17.0711 9.42177C17.1285 9.59137 17.2699 9.62663 17.433 9.62663C18.0389 9.62573 18.6449 9.62586 19.2508 9.62599C19.7053 9.62608 20.1598 9.62618 20.6143 9.62584C20.905 9.62545 20.9985 9.52949 20.9985 9.23611V6.45585C20.9985 6.41242 20.999 6.36893 20.9994 6.32542C21.0007 6.20571 21.0019 6.08585 20.9938 5.96663C20.9824 5.7982 20.8304 5.66541 20.6803 5.6756C20.5279 5.68578 20.4159 5.80838 20.4053 5.98034C20.4021 6.03316 20.4023 6.08625 20.4024 6.13938C20.4025 6.15165 20.4025 6.16392 20.4025 6.17618C20.4025 6.53831 20.4027 6.90053 20.4029 7.26275C20.4031 7.62497 20.4033 7.98719 20.4033 8.34931ZM3.59446 15.6473V15.4174H3.59485C3.60526 15.4154 3.61558 15.4134 3.62589 15.4113C3.6362 15.4093 3.64652 15.4072 3.65693 15.4052C3.66607 15.423 3.67554 15.4405 3.68499 15.458C3.70519 15.4954 3.72533 15.5328 3.74219 15.5717C4.30561 16.8706 5.12127 17.9896 6.21864 18.8839C8.35131 20.6222 10.8026 21.3433 13.5144 20.8451C16.935 20.216 19.261 18.2078 20.4939 14.9575C20.6094 14.6528 20.5599 14.4754 20.3615 14.4131C20.1631 14.3504 20.0362 14.4491 19.9301 14.7523C18.5636 18.6594 14.5246 21.0128 10.504 20.2356C7.54586 19.6638 5.4682 17.9583 4.24746 15.2137C4.14688 14.9873 4.16731 14.9607 4.42073 14.9603C4.73584 14.9598 5.05096 14.9598 5.36608 14.9598C5.77115 14.9598 6.17622 14.9598 6.58129 14.9587C6.81703 14.9579 6.94787 14.8522 6.95062 14.672C6.95337 14.4879 6.80603 14.3645 6.575 14.3645C5.50788 14.3637 4.44037 14.3633 3.37326 14.3645C3.09665 14.3645 3 14.4644 3 14.7456C3 15.8032 3 16.8608 3.00039 17.918C3.00079 18.1506 3.1163 18.3085 3.28917 18.3163C3.46952 18.3245 3.59407 18.1651 3.59407 17.9188C3.59466 17.3509 3.59458 16.783 3.59451 16.2152C3.59448 16.0259 3.59446 15.8366 3.59446 15.6473Z" fill="black"/>
<path d="M20.4033 8.57336L20.4422 8.76954L20.6033 8.73762V8.57336H20.4033ZM20.34 8.58589L20.1708 8.69248L20.2441 8.8088L20.3789 8.78208L20.34 8.58589ZM20.3286 8.56878L20.4935 8.45559L20.4935 8.45557L20.3286 8.56878ZM20.3082 8.53576L20.1284 8.62335L20.1287 8.62382L20.3082 8.53576ZM20.2516 8.4112L20.4353 8.332L20.4351 8.33149L20.2516 8.4112ZM18.5142 5.79976L18.3728 5.94116L18.3728 5.94118L18.5142 5.79976ZM10.283 3.18598L10.2448 2.98967L10.2448 2.98967L10.283 3.18598ZM3.7675 8.36928L3.58624 8.28475L3.58622 8.2848L3.7675 8.36928ZM3.452 9.19067L3.64119 9.25551L3.64127 9.25529L3.452 9.19067ZM3.6288 9.57492L3.56193 9.76341L3.56237 9.76357L3.6288 9.57492ZM4.00481 9.41119L4.18386 9.50031L4.18407 9.49988L4.00481 9.41119ZM4.06121 9.26676L4.25047 9.33143L4.25047 9.33143L4.06121 9.26676ZM4.07435 9.22866L3.88586 9.16178L3.88566 9.16236L4.07435 9.22866ZM6.44747 5.71398L6.57752 5.86593L6.57752 5.86593L6.44747 5.71398ZM13.6364 3.78058L13.6763 3.58461L13.6763 3.5846L13.6364 3.78058ZM19.7232 8.70849L19.541 8.79095L19.541 8.79109L19.7232 8.70849ZM19.7897 8.89167L19.5993 8.95311L19.5993 8.95311L19.7897 8.89167ZM19.8277 9.00618L19.8442 9.2055L20.1016 9.18419L20.0166 8.94035L19.8277 9.00618ZM19.7191 9.01645L19.7393 9.21543L19.7393 9.21543L19.7191 9.01645ZM19.5334 9.02929V8.82929L19.5329 8.82929L19.5334 9.02929ZM18.6358 9.02996L18.6357 9.22996L18.6357 9.22996L18.6358 9.02996ZM17.3929 9.03203L17.3938 9.23203L17.394 9.23203L17.3929 9.03203ZM17.0711 9.42177L17.2606 9.35769L17.2605 9.35762L17.0711 9.42177ZM17.433 9.62663L17.433 9.82663L17.4333 9.82663L17.433 9.62663ZM19.2508 9.62599L19.2508 9.82599L19.2508 9.82599L19.2508 9.62599ZM20.6143 9.62584L20.6144 9.82584L20.6146 9.82584L20.6143 9.62584ZM20.9994 6.32542L21.1994 6.32748L21.1994 6.32748L20.9994 6.32542ZM20.9938 5.96663L20.7943 5.98012L20.7943 5.98013L20.9938 5.96663ZM20.6803 5.6756L20.6936 5.87515L20.6938 5.87514L20.6803 5.6756ZM20.4053 5.98034L20.2056 5.96802L20.2056 5.96827L20.4053 5.98034ZM20.4024 6.13938L20.2024 6.14006L20.2024 6.14007L20.4024 6.13938ZM20.4029 7.26275L20.2029 7.26285L20.2029 7.26285L20.4029 7.26275ZM3.59446 15.4174V15.2174H3.39446V15.4174H3.59446ZM3.59485 15.4174V15.6174H3.6135L3.63183 15.6139L3.59485 15.4174ZM3.65693 15.4052L3.83469 15.3136L3.76639 15.1811L3.61995 15.2087L3.65693 15.4052ZM3.68499 15.458L3.86099 15.363L3.86099 15.363L3.68499 15.458ZM3.74219 15.5717L3.55864 15.6512L3.55871 15.6513L3.74219 15.5717ZM6.21864 18.8839L6.345 18.7289L6.34498 18.7288L6.21864 18.8839ZM13.5144 20.8451L13.5506 21.0418L13.5506 21.0418L13.5144 20.8451ZM20.4939 14.9575L20.6809 15.0285L20.6809 15.0284L20.4939 14.9575ZM20.3615 14.4131L20.3013 14.6038L20.3016 14.6039L20.3615 14.4131ZM19.9301 14.7523L19.7413 14.6862L19.7413 14.6863L19.9301 14.7523ZM10.504 20.2356L10.466 20.432L10.4661 20.432L10.504 20.2356ZM4.24746 15.2137L4.06469 15.2949L4.06472 15.295L4.24746 15.2137ZM4.42073 14.9603L4.42104 15.1603L4.42105 15.1603L4.42073 14.9603ZM5.36608 14.9598L5.36607 15.1598L5.36607 15.1598L5.36608 14.9598ZM6.58129 14.9587L6.58183 15.1587L6.58195 15.1587L6.58129 14.9587ZM6.95062 14.672L7.15059 14.675L7.15059 14.675L6.95062 14.672ZM6.575 14.3645L6.57486 14.5645H6.575V14.3645ZM3.37326 14.3645L3.37326 14.5645L3.37348 14.5645L3.37326 14.3645ZM3.00039 17.918L2.80039 17.918L2.80039 17.9183L3.00039 17.918ZM3.28917 18.3163L3.29829 18.1165L3.29823 18.1165L3.28917 18.3163ZM3.59407 17.9188L3.39407 17.9185V17.9188H3.59407ZM3.59451 16.2152L3.79451 16.2151L3.59451 16.2152ZM20.6033 8.57297V8.34931H20.2033V8.57297H20.6033ZM20.6033 8.57336V8.57297H20.2033V8.57336H20.6033ZM20.3789 8.78208L20.4422 8.76954L20.3644 8.37717L20.3012 8.38971L20.3789 8.78208ZM20.1637 8.68197C20.168 8.68817 20.1696 8.69058 20.1708 8.69248L20.5093 8.4793C20.5032 8.4696 20.497 8.46069 20.4935 8.45559L20.1637 8.68197ZM20.1287 8.62382C20.1418 8.6507 20.1578 8.67336 20.1637 8.68198L20.4935 8.45557C20.4895 8.44969 20.4878 8.44729 20.4866 8.44538C20.4856 8.44382 20.4864 8.44487 20.4878 8.44769L20.1287 8.62382ZM20.068 8.49039C20.0866 8.53352 20.1064 8.57823 20.1284 8.62335L20.488 8.44816C20.4699 8.41103 20.4528 8.37269 20.4353 8.332L20.068 8.49039ZM18.3728 5.94118C19.1022 6.67062 19.6533 7.53607 20.0682 8.49091L20.4351 8.33149C20.0037 7.33881 19.4264 6.4291 18.6557 5.65835L18.3728 5.94118ZM10.3212 3.3823C13.4386 2.77551 16.1299 3.69747 18.3728 5.94116L18.6557 5.65837C16.326 3.32784 13.5025 2.35556 10.2448 2.98967L10.3212 3.3823ZM3.94875 8.45382C5.23135 5.70368 7.34715 3.96118 10.3212 3.3823L10.2448 2.98967C7.13747 3.59449 4.91957 5.42582 3.58624 8.28475L3.94875 8.45382ZM3.64127 9.25529C3.73615 8.97741 3.83011 8.70839 3.94878 8.45377L3.58622 8.2848C3.45735 8.56131 3.35722 8.84929 3.26273 9.12604L3.64127 9.25529ZM3.69567 9.38643C3.66828 9.37672 3.6509 9.35935 3.64179 9.34042C3.63307 9.32231 3.6279 9.29429 3.64119 9.25551L3.2628 9.12582C3.16848 9.40102 3.3069 9.67294 3.56193 9.76341L3.69567 9.38643ZM3.82576 9.32208C3.80544 9.3629 3.78191 9.3803 3.76541 9.38742C3.74959 9.39425 3.72707 9.39749 3.69524 9.38628L3.56237 9.76357C3.6818 9.80563 3.80878 9.80436 3.92389 9.75469C4.03832 9.70531 4.12717 9.61421 4.18386 9.50031L3.82576 9.32208ZM3.87196 9.20208C3.85442 9.25341 3.84157 9.29012 3.82555 9.3225L4.18407 9.49988C4.21361 9.44017 4.23443 9.37837 4.25047 9.33143L3.87196 9.20208ZM3.88566 9.16236C3.88088 9.17596 3.87626 9.1895 3.87196 9.20209L4.25047 9.33143C4.25486 9.31857 4.25893 9.30667 4.26304 9.29497L3.88566 9.16236ZM6.31742 5.56204C5.17721 6.53797 4.3844 7.75681 3.88587 9.16178L4.26284 9.29555C4.74027 7.95004 5.49548 6.79207 6.57752 5.86593L6.31742 5.56204ZM13.6763 3.5846C10.9173 3.0223 8.44457 3.74134 6.31742 5.56204L6.57752 5.86593C8.61748 4.11985 10.9664 3.44054 13.5964 3.97655L13.6763 3.5846ZM19.9054 8.62604C18.678 5.91366 16.6038 4.1817 13.6763 3.58461L13.5964 3.97654C16.3919 4.54671 18.3638 6.18959 19.541 8.79095L19.9054 8.62604ZM19.98 8.83023C19.9589 8.76471 19.9364 8.69438 19.9053 8.6259L19.541 8.79109C19.561 8.83516 19.5767 8.88311 19.5993 8.95311L19.98 8.83023ZM20.0166 8.94035C20.0031 8.90174 19.9915 8.86593 19.98 8.83023L19.5993 8.95311C19.6108 8.98846 19.6237 9.02844 19.6388 9.07201L20.0166 8.94035ZM19.7393 9.21543C19.773 9.21202 19.8071 9.20857 19.8442 9.2055L19.8112 8.80686C19.77 8.81028 19.7324 8.81408 19.699 8.81747L19.7393 9.21543ZM19.5334 9.22929C19.6042 9.22929 19.6734 9.2221 19.7393 9.21543L19.699 8.81747C19.6289 8.82456 19.5804 8.82929 19.5334 8.82929V9.22929ZM18.6357 9.22996C18.9349 9.23004 19.2344 9.23011 19.534 9.22929L19.5329 8.82929C19.234 8.83011 18.9351 8.83004 18.6358 8.82996L18.6357 9.22996ZM17.394 9.23203C17.8076 9.22976 18.2213 9.22986 18.6357 9.22996L18.6358 8.82996C18.2216 8.82986 17.8068 8.82976 17.3918 8.83204L17.394 9.23203ZM17.2605 9.35762C17.2427 9.30488 17.2562 9.28239 17.2637 9.27336C17.2744 9.26032 17.3097 9.23242 17.3938 9.23203L17.392 8.83203C17.2215 8.83282 17.0594 8.89188 16.9546 9.01946C16.8465 9.15104 16.8265 9.32283 16.8817 9.48591L17.2605 9.35762ZM17.433 9.42663C17.3615 9.42663 17.3211 9.41806 17.2985 9.40729C17.2891 9.40281 17.2835 9.39824 17.2791 9.39327C17.2746 9.38817 17.2674 9.37801 17.2606 9.35769L16.8817 9.48585C16.9272 9.62053 17.0134 9.71445 17.1263 9.76831C17.2295 9.81756 17.3414 9.82663 17.433 9.82663V9.42663ZM19.2509 9.42599C18.6449 9.42586 18.0388 9.42573 17.4327 9.42663L17.4333 9.82663C18.039 9.82573 18.6448 9.82586 19.2508 9.82599L19.2509 9.42599ZM20.6141 9.42584C20.1598 9.42618 19.7054 9.42608 19.2509 9.42599L19.2508 9.82599C19.7053 9.82608 20.1598 9.82618 20.6144 9.82584L20.6141 9.42584ZM20.7985 9.23611C20.7985 9.37351 20.7738 9.39964 20.7729 9.40059C20.7728 9.40067 20.749 9.42566 20.614 9.42584L20.6146 9.82584C20.7703 9.82563 20.9387 9.80245 21.058 9.6811C21.1765 9.56062 21.1985 9.39209 21.1985 9.23611H20.7985ZM20.7985 6.45585V9.23611H21.1985V6.45585H20.7985ZM20.7995 6.32336C20.799 6.36671 20.7985 6.41122 20.7985 6.45585H21.1985C21.1985 6.41362 21.199 6.37116 21.1994 6.32748L20.7995 6.32336ZM20.7943 5.98013C20.8017 6.09029 20.8007 6.20234 20.7995 6.32337L21.1994 6.32748C21.2006 6.20908 21.2021 6.08142 21.1934 5.95312L20.7943 5.98013ZM20.6938 5.87514C20.7058 5.87433 20.7296 5.8794 20.7544 5.90203C20.7785 5.92392 20.7924 5.95259 20.7943 5.98012L21.1934 5.95313C21.1751 5.68235 20.9348 5.45787 20.6668 5.47606L20.6938 5.87514ZM20.6049 5.99265C20.6104 5.90399 20.6577 5.87755 20.6936 5.87515L20.667 5.47604C20.398 5.49401 20.2214 5.71277 20.2056 5.96802L20.6049 5.99265ZM20.6024 6.13871C20.6022 6.08449 20.6022 6.0378 20.6049 5.9924L20.2056 5.96827C20.202 6.02853 20.2023 6.08801 20.2024 6.14006L20.6024 6.13871ZM20.6025 6.17618C20.6025 6.16352 20.6025 6.15091 20.6024 6.1387L20.2024 6.14007C20.2025 6.15239 20.2025 6.16432 20.2025 6.17618H20.6025ZM20.6029 7.26264C20.6027 6.90041 20.6025 6.53824 20.6025 6.17618H20.2025C20.2025 6.53837 20.2027 6.90064 20.2029 7.26285L20.6029 7.26264ZM20.6033 8.34931C20.6033 7.98712 20.6031 7.62485 20.6029 7.26264L20.2029 7.26285C20.2031 7.62508 20.2033 7.98725 20.2033 8.34931H20.6033ZM3.39446 15.4174V15.6473H3.79446V15.4174H3.39446ZM3.59485 15.2174H3.59446V15.6174H3.59485V15.2174ZM3.58679 15.2152C3.5763 15.2173 3.56705 15.2191 3.55787 15.2208L3.63183 15.6139C3.64348 15.6117 3.65485 15.6095 3.66499 15.6075L3.58679 15.2152ZM3.61995 15.2087C3.6083 15.2109 3.59691 15.2132 3.58679 15.2152L3.66499 15.6075C3.6755 15.6054 3.68474 15.6035 3.69391 15.6018L3.61995 15.2087ZM3.86099 15.363C3.85139 15.3452 3.84283 15.3294 3.83469 15.3136L3.47917 15.4969C3.48932 15.5166 3.49969 15.5358 3.50899 15.553L3.86099 15.363ZM3.92573 15.4923C3.90486 15.4441 3.8805 15.3992 3.86099 15.363L3.50899 15.553C3.52987 15.5917 3.54579 15.6215 3.55864 15.6512L3.92573 15.4923ZM6.34498 18.7288C5.27434 17.8564 4.47738 16.764 3.92567 15.4921L3.55871 15.6513C4.13384 16.9772 4.9682 18.1229 6.0923 19.0389L6.34498 18.7288ZM13.4783 20.6484C10.8291 21.1351 8.43628 20.4335 6.345 18.7289L6.09228 19.0389C8.26634 20.811 10.7761 21.5516 13.5506 21.0418L13.4783 20.6484ZM20.3069 14.8866C19.0979 18.0739 16.8275 20.0325 13.4782 20.6484L13.5506 21.0418C17.0426 20.3996 19.4241 18.3417 20.6809 15.0285L20.3069 14.8866ZM20.3016 14.6039C20.3277 14.6121 20.3384 14.6207 20.3421 14.6243C20.3448 14.627 20.3485 14.6313 20.3515 14.6433C20.3594 14.6745 20.3593 14.7484 20.3069 14.8866L20.6809 15.0284C20.744 14.862 20.777 14.6947 20.7394 14.5455C20.6969 14.3769 20.5754 14.2706 20.4214 14.2223L20.3016 14.6039ZM20.1189 14.8183C20.1688 14.6757 20.2115 14.621 20.2346 14.6029C20.2424 14.5968 20.2464 14.5959 20.2501 14.5955C20.2559 14.5947 20.2713 14.5943 20.3013 14.6038L20.4217 14.2224C20.2763 14.1764 20.1219 14.1829 19.9877 14.2881C19.8713 14.3795 19.7975 14.5257 19.7413 14.6862L20.1189 14.8183ZM10.4661 20.432C14.5859 21.2283 18.7202 18.8174 20.1189 14.8183L19.7413 14.6863C18.4069 18.5015 14.4632 20.7972 10.542 20.0393L10.4661 20.432ZM4.06472 15.295C5.3111 18.0972 7.44154 19.8473 10.466 20.432L10.542 20.0393C7.65018 19.4802 5.6253 17.8194 4.4302 15.1324L4.06472 15.295ZM4.42042 14.7603C4.35753 14.7604 4.29351 14.7618 4.23922 14.771C4.19148 14.7791 4.09728 14.8011 4.03685 14.8885C3.97445 14.9787 3.99021 15.0764 4.00202 15.1255C4.01503 15.1795 4.03966 15.2386 4.06469 15.2949L4.43023 15.1325C4.41831 15.1057 4.4092 15.0841 4.40242 15.0663C4.39549 15.0482 4.39226 15.0375 4.3909 15.0318C4.39029 15.0293 4.39042 15.0292 4.39065 15.0312C4.39088 15.0331 4.39136 15.0383 4.39092 15.0458C4.39047 15.0535 4.38902 15.0643 4.38506 15.0769C4.381 15.0897 4.37474 15.1031 4.36583 15.116C4.35696 15.1288 4.34692 15.139 4.33716 15.1468C4.32763 15.1544 4.3191 15.1591 4.31324 15.1619C4.30746 15.1646 4.30358 15.1658 4.30265 15.166C4.3017 15.1663 4.3026 15.166 4.30597 15.1654C4.31321 15.1642 4.32578 15.1628 4.3462 15.1618C4.36627 15.1608 4.39074 15.1603 4.42104 15.1603L4.42042 14.7603ZM5.36608 14.7598C5.05099 14.7598 4.73571 14.7598 4.4204 14.7603L4.42105 15.1603C4.73598 15.1598 5.05093 15.1598 5.36607 15.1598L5.36608 14.7598ZM6.58075 14.7587C6.176 14.7598 5.7712 14.7598 5.36608 14.7598L5.36607 15.1598C5.7711 15.1598 6.17644 15.1598 6.58183 15.1587L6.58075 14.7587ZM6.75064 14.6689C6.75006 14.7068 6.73891 14.7182 6.72986 14.7253C6.71435 14.7375 6.67202 14.7584 6.58063 14.7587L6.58195 15.1587C6.72629 15.1582 6.86726 15.1259 6.97679 15.04C7.09278 14.9489 7.14842 14.8174 7.15059 14.675L6.75064 14.6689ZM6.575 14.5645C6.65668 14.5645 6.70237 14.5863 6.7233 14.6036C6.74028 14.6176 6.75113 14.6358 6.75064 14.669L7.15059 14.675C7.15285 14.5241 7.09141 14.3886 6.97765 14.2949C6.86784 14.2044 6.72435 14.1645 6.575 14.1645V14.5645ZM3.37348 14.5645C4.44041 14.5633 5.50778 14.5637 6.57486 14.5645L6.57515 14.1645C5.50799 14.1637 4.44034 14.1633 3.37304 14.1645L3.37348 14.5645ZM3.2 14.7456C3.2 14.6178 3.22423 14.5911 3.22596 14.5894C3.22644 14.5889 3.24954 14.5645 3.37326 14.5645V14.1645C3.22037 14.1645 3.05684 14.1901 2.93984 14.3098C2.82409 14.4283 2.8 14.5923 2.8 14.7456H3.2ZM3.20039 17.9179C3.2 16.8608 3.2 15.8032 3.2 14.7456H2.8C2.8 15.8032 2.8 16.8608 2.80039 17.918L3.20039 17.9179ZM3.29823 18.1165C3.2765 18.1155 3.25905 18.1075 3.24188 18.0839C3.22191 18.0564 3.20054 18.0029 3.20039 17.9176L2.80039 17.9183C2.80064 18.0657 2.83722 18.2075 2.91832 18.3191C3.00223 18.4345 3.12898 18.5093 3.28012 18.5161L3.29823 18.1165ZM3.39407 17.9188C3.39407 18.0107 3.37058 18.0653 3.35086 18.0909C3.33511 18.1113 3.32025 18.1175 3.29829 18.1165L3.28006 18.5161C3.43844 18.5233 3.57603 18.4539 3.66764 18.3351C3.75528 18.2215 3.79407 18.0731 3.79407 17.9188H3.39407ZM3.39451 16.2152C3.39458 16.7831 3.39466 17.3508 3.39407 17.9185L3.79407 17.919C3.79466 17.351 3.79458 16.783 3.79451 16.2151L3.39451 16.2152ZM3.39446 15.6473C3.39446 15.8366 3.39448 16.0259 3.39451 16.2152L3.79451 16.2151C3.79448 16.0259 3.79446 15.8366 3.79446 15.6473H3.39446Z" fill="#25314C" mask="url(#path-1-outside-1_705_362)"/>
</svg>
