<svg width="32" height="32" viewBox="0 0 32 32" fill="none" xmlns="http://www.w3.org/2000/svg">
<path d="M20 10H21C22.1046 10 23 10.8954 23 12V16.5M9 17V20C9 21.1046 9.89543 22 11 22H12M17 9.5V12C17 13.1046 16.1046 14 15 14H9C7.89543 14 7 13.1046 7 12V8C7 6.89543 7.89543 6 9 6H10.3333C10.7661 6 11.1871 6.14036 11.5333 6.4L12.4667 7.1C12.8129 7.35964 13.2339 7.5 13.6667 7.5H15C16.1046 7.5 17 8.39543 17 9.5ZM25 21.5V24C25 25.1046 24.1046 26 23 26H17C15.8954 26 15 25.1046 15 24V20C15 18.8954 15.8954 18 17 18H18.3333C18.7661 18 19.1871 18.1404 19.5333 18.4L20.4667 19.1C20.8129 19.3596 21.2339 19.5 21.6667 19.5H23C24.1046 19.5 25 20.3954 25 21.5Z" stroke="#28303F" stroke-width="1.5" stroke-linecap="round" stroke-linejoin="round"/>
</svg>
